<?xml version="1.0" encoding="UTF-8"?>
<svg id="Camada_1"
	xmlns="http://www.w3.org/2000/svg" viewBox="0 0 628.86 115.85">
	<defs>
		<style>.cls-1{fill:#231f20;}</style>
	</defs>
	<path fill="" class="cls-1" d="M617.52,8.52h-2.03v2.6h2.03c.77,0,1.17-.45,1.17-1.29s-.4-1.31-1.17-1.31ZM372.04,32.11l68.35,81.82h14.08V6.07h-16.27v81.67L369.99,6.07h-14.22v107.86h16.27V32.11ZM166.24,4.14c-32.19,0-55.56,23.49-55.56,55.85s23.37,55.86,55.56,55.86,55.71-23.49,55.71-55.86S198.52,4.14,166.24,4.14ZM166.24,100.17c-23.24,0-38.85-16.15-38.85-40.18s15.97-40.18,38.85-40.18,38.99,16.15,38.99,40.18-16.03,40.18-38.99,40.18ZM0,21.59h41.58v92.33h16.27V21.59h41.73V6.07H0v15.53ZM616.72,0c-7.03,0-12.13,5.1-12.13,12.14s5.1,12.14,12.13,12.14,12.14-5.1,12.14-12.14-5.1-12.14-12.14-12.14ZM618.66,17l-2.16-3.84h-1.01v3.84h-2.19V6.47h4.3c2.09,0,3.37,1.37,3.37,3.34,0,1.56-.8,2.75-2.16,3.17l2.47,4.01h-2.6ZM291.36,113.92v-43.67l45.79-55.71-12.71-10.49-41.22,50.08L242.01,4.06l-12.72,10.7,45.95,55.5v43.66h16.12ZM535.51,4.14c-32.19,0-55.56,23.49-55.56,55.85s23.37,55.86,55.56,55.86,55.71-23.49,55.71-55.86-23.43-55.85-55.71-55.85ZM535.51,100.17c-23.24,0-38.85-16.15-38.85-40.18s15.97-40.18,38.85-40.18,38.99,16.15,38.99,40.18-16.04,40.18-38.99,40.18Z"/>
</svg>