<?xml version="1.0" encoding="UTF-8"?><svg id="Layer_1" xmlns="http://www.w3.org/2000/svg" viewBox="0 0 783.78 783.78"><defs><style>.cls-1{fill-rule:evenodd;}</style></defs><g transform="translate(0,0) scale(1.0,1.0)"><rect x="270.27" width="27.03" height="27.03" shape-rendering="crispEdges"/><rect x="324.32" width="27.03" height="27.03" shape-rendering="crispEdges"/><rect x="405.41" width="27.03" height="27.03" shape-rendering="crispEdges"/><rect x="432.43" width="27.03" height="27.03" shape-rendering="crispEdges"/><rect x="459.46" width="27.03" height="27.03" shape-rendering="crispEdges"/><rect x="540.54" width="27.03" height="27.03" shape-rendering="crispEdges"/><rect x="216.22" y="27.03" width="27.03" height="27.03" shape-rendering="crispEdges"/><rect x="270.27" y="27.03" width="27.03" height="27.03" shape-rendering="crispEdges"/><rect x="297.3" y="27.03" width="27.03" height="27.03" shape-rendering="crispEdges"/><rect x="351.35" y="27.03" width="27.03" height="27.03" shape-rendering="crispEdges"/><rect x="378.38" y="27.03" width="27.03" height="27.03" shape-rendering="crispEdges"/><rect x="432.43" y="27.03" width="27.03" height="27.03" shape-rendering="crispEdges"/><rect x="459.46" y="27.03" width="27.03" height="27.03" shape-rendering="crispEdges"/><rect x="216.22" y="54.05" width="27.03" height="27.03" shape-rendering="crispEdges"/><rect x="351.35" y="54.05" width="27.03" height="27.03" shape-rendering="crispEdges"/><rect x="405.41" y="54.05" width="27.03" height="27.03" shape-rendering="crispEdges"/><rect x="459.46" y="54.05" width="27.03" height="27.03" shape-rendering="crispEdges"/><rect x="486.49" y="54.05" width="27.03" height="27.03" shape-rendering="crispEdges"/><rect x="513.51" y="54.05" width="27.03" height="27.03" shape-rendering="crispEdges"/><rect x="540.54" y="54.05" width="27.03" height="27.03" shape-rendering="crispEdges"/><rect x="216.22" y="81.08" width="27.03" height="27.03" shape-rendering="crispEdges"/><rect x="324.32" y="81.08" width="27.03" height="27.03" shape-rendering="crispEdges"/><rect x="432.43" y="81.08" width="27.03" height="27.03" shape-rendering="crispEdges"/><rect x="459.46" y="81.08" width="27.03" height="27.03" shape-rendering="crispEdges"/><rect x="540.54" y="81.08" width="27.03" height="27.03" shape-rendering="crispEdges"/><rect x="243.24" y="108.11" width="27.03" height="27.03" shape-rendering="crispEdges"/><rect x="405.41" y="108.11" width="27.03" height="27.03" shape-rendering="crispEdges"/><rect x="432.43" y="108.11" width="27.03" height="27.03" shape-rendering="crispEdges"/><rect x="513.51" y="108.11" width="27.03" height="27.03" shape-rendering="crispEdges"/><rect x="540.54" y="108.11" width="27.03" height="27.03" shape-rendering="crispEdges"/><rect x="297.3" y="135.14" width="27.03" height="27.03" shape-rendering="crispEdges"/><rect x="405.41" y="135.14" width="27.03" height="27.03" shape-rendering="crispEdges"/><rect x="459.46" y="135.14" width="27.03" height="27.03" shape-rendering="crispEdges"/><rect x="513.51" y="135.14" width="27.03" height="27.03" shape-rendering="crispEdges"/><rect x="216.22" y="162.16" width="27.03" height="27.03" shape-rendering="crispEdges"/><rect x="270.27" y="162.16" width="27.03" height="27.03" shape-rendering="crispEdges"/><rect x="324.32" y="162.16" width="27.03" height="27.03" shape-rendering="crispEdges"/><rect x="378.38" y="162.16" width="27.03" height="27.03" shape-rendering="crispEdges"/><rect x="432.43" y="162.16" width="27.03" height="27.03" shape-rendering="crispEdges"/><rect x="486.49" y="162.16" width="27.03" height="27.03" shape-rendering="crispEdges"/><rect x="540.54" y="162.16" width="27.03" height="27.03" shape-rendering="crispEdges"/><rect x="216.22" y="189.19" width="27.03" height="27.03" shape-rendering="crispEdges"/><rect x="243.24" y="189.19" width="27.03" height="27.03" shape-rendering="crispEdges"/><rect x="270.27" y="189.19" width="27.03" height="27.03" shape-rendering="crispEdges"/><rect x="378.38" y="189.19" width="27.03" height="27.03" shape-rendering="crispEdges"/><rect x="405.41" y="189.19" width="27.03" height="27.03" shape-rendering="crispEdges"/><rect x="432.43" y="189.19" width="27.03" height="27.03" shape-rendering="crispEdges"/><rect x="459.46" y="189.19" width="27.03" height="27.03" shape-rendering="crispEdges"/><rect x="486.49" y="189.19" width="27.03" height="27.03" shape-rendering="crispEdges"/><rect x="513.51" y="189.19" width="27.03" height="27.03" shape-rendering="crispEdges"/><rect y="216.22" width="27.03" height="27.03" shape-rendering="crispEdges"/><rect x="162.16" y="216.22" width="27.03" height="27.03" shape-rendering="crispEdges"/><rect x="216.22" y="216.22" width="27.03" height="27.03" shape-rendering="crispEdges"/><rect x="324.32" y="216.22" width="27.03" height="27.03" shape-rendering="crispEdges"/><rect x="432.43" y="216.22" width="27.03" height="27.03" shape-rendering="crispEdges"/><rect x="540.54" y="216.22" width="27.03" height="27.03" shape-rendering="crispEdges"/><rect x="567.57" y="216.22" width="27.03" height="27.03" shape-rendering="crispEdges"/><rect x="594.59" y="216.22" width="27.03" height="27.03" shape-rendering="crispEdges"/><rect x="675.68" y="216.22" width="27.03" height="27.03" shape-rendering="crispEdges"/><rect x="702.7" y="216.22" width="27.03" height="27.03" shape-rendering="crispEdges"/><rect x="729.73" y="216.22" width="27.03" height="27.03" shape-rendering="crispEdges"/><rect x="54.05" y="243.24" width="27.03" height="27.03" shape-rendering="crispEdges"/><rect x="81.08" y="243.24" width="27.03" height="27.03" shape-rendering="crispEdges"/><rect x="108.11" y="243.24" width="27.03" height="27.03" shape-rendering="crispEdges"/><rect x="216.22" y="243.24" width="27.03" height="27.03" shape-rendering="crispEdges"/><rect x="270.27" y="243.24" width="27.03" height="27.03" shape-rendering="crispEdges"/><rect x="351.35" y="243.24" width="27.03" height="27.03" shape-rendering="crispEdges"/><rect x="432.43" y="243.24" width="27.03" height="27.03" shape-rendering="crispEdges"/><rect x="513.51" y="243.24" width="27.03" height="27.03" shape-rendering="crispEdges"/><rect x="567.57" y="243.24" width="27.03" height="27.03" shape-rendering="crispEdges"/><rect x="594.59" y="243.24" width="27.03" height="27.03" shape-rendering="crispEdges"/><rect x="648.65" y="243.24" width="27.03" height="27.03" shape-rendering="crispEdges"/><rect x="675.68" y="243.24" width="27.03" height="27.03" shape-rendering="crispEdges"/><rect x="702.7" y="243.24" width="27.03" height="27.03" shape-rendering="crispEdges"/><rect x="756.76" y="243.24" width="27.03" height="27.03" shape-rendering="crispEdges"/><rect x="54.05" y="270.27" width="27.03" height="27.03" shape-rendering="crispEdges"/><rect x="81.08" y="270.27" width="27.03" height="27.03" shape-rendering="crispEdges"/><rect x="135.14" y="270.27" width="27.03" height="27.03" shape-rendering="crispEdges"/><rect x="162.16" y="270.27" width="27.03" height="27.03" shape-rendering="crispEdges"/><rect x="189.19" y="270.27" width="27.03" height="27.03" shape-rendering="crispEdges"/><rect x="243.24" y="270.27" width="27.03" height="27.03" shape-rendering="crispEdges"/><rect x="297.3" y="270.27" width="27.03" height="27.03" shape-rendering="crispEdges"/><rect x="351.35" y="270.27" width="27.03" height="27.03" shape-rendering="crispEdges"/><rect x="378.38" y="270.27" width="27.03" height="27.03" shape-rendering="crispEdges"/><rect x="405.41" y="270.27" width="27.03" height="27.03" shape-rendering="crispEdges"/><rect x="432.43" y="270.27" width="27.03" height="27.03" shape-rendering="crispEdges"/><rect x="459.46" y="270.27" width="27.03" height="27.03" shape-rendering="crispEdges"/><rect x="486.49" y="270.27" width="27.03" height="27.03" shape-rendering="crispEdges"/><rect x="513.51" y="270.27" width="27.03" height="27.03" shape-rendering="crispEdges"/><rect x="675.68" y="270.27" width="27.03" height="27.03" shape-rendering="crispEdges"/><rect x="702.7" y="270.27" width="27.03" height="27.03" shape-rendering="crispEdges"/><rect x="54.05" y="297.3" width="27.03" height="27.03" shape-rendering="crispEdges"/><rect x="81.08" y="297.3" width="27.03" height="27.03" shape-rendering="crispEdges"/><rect x="216.22" y="297.3" width="27.03" height="27.03" shape-rendering="crispEdges"/><rect x="243.24" y="297.3" width="27.03" height="27.03" shape-rendering="crispEdges"/><rect x="351.35" y="297.3" width="27.03" height="27.03" shape-rendering="crispEdges"/><rect x="459.46" y="297.3" width="27.03" height="27.03" shape-rendering="crispEdges"/><rect x="486.49" y="297.3" width="27.03" height="27.03" shape-rendering="crispEdges"/><rect x="513.51" y="297.3" width="27.03" height="27.03" shape-rendering="crispEdges"/><rect x="540.54" y="297.3" width="27.03" height="27.03" shape-rendering="crispEdges"/><rect x="594.59" y="297.3" width="27.03" height="27.03" shape-rendering="crispEdges"/><rect x="621.62" y="297.3" width="27.03" height="27.03" shape-rendering="crispEdges"/><rect x="648.65" y="297.3" width="27.03" height="27.03" shape-rendering="crispEdges"/><rect x="675.68" y="297.3" width="27.03" height="27.03" shape-rendering="crispEdges"/><rect x="729.73" y="297.3" width="27.03" height="27.03" shape-rendering="crispEdges"/><rect x="756.76" y="297.3" width="27.03" height="27.03" shape-rendering="crispEdges"/><rect y="324.32" width="27.03" height="27.03" shape-rendering="crispEdges"/><rect x="27.03" y="324.32" width="27.03" height="27.03" shape-rendering="crispEdges"/><rect x="135.14" y="324.32" width="27.03" height="27.03" shape-rendering="crispEdges"/><rect x="162.16" y="324.32" width="27.03" height="27.03" shape-rendering="crispEdges"/><rect x="216.22" y="324.32" width="27.03" height="27.03" shape-rendering="crispEdges"/><rect x="270.27" y="324.32" width="27.03" height="27.03" shape-rendering="crispEdges"/><rect x="351.35" y="324.32" width="27.03" height="27.03" shape-rendering="crispEdges"/><rect x="405.41" y="324.32" width="27.03" height="27.03" shape-rendering="crispEdges"/><rect x="432.43" y="324.32" width="27.03" height="27.03" shape-rendering="crispEdges"/><rect x="513.51" y="324.32" width="27.03" height="27.03" shape-rendering="crispEdges"/><rect x="540.54" y="324.32" width="27.03" height="27.03" shape-rendering="crispEdges"/><rect x="567.57" y="324.32" width="27.03" height="27.03" shape-rendering="crispEdges"/><rect x="675.68" y="324.32" width="27.03" height="27.03" shape-rendering="crispEdges"/><rect x="702.7" y="324.32" width="27.03" height="27.03" shape-rendering="crispEdges"/><rect x="756.76" y="324.32" width="27.03" height="27.03" shape-rendering="crispEdges"/><rect y="351.35" width="27.03" height="27.03" shape-rendering="crispEdges"/><rect x="27.03" y="351.35" width="27.03" height="27.03" shape-rendering="crispEdges"/><rect x="54.05" y="351.35" width="27.03" height="27.03" shape-rendering="crispEdges"/><rect x="108.11" y="351.35" width="27.03" height="27.03" shape-rendering="crispEdges"/><rect x="324.32" y="351.35" width="27.03" height="27.03" shape-rendering="crispEdges"/><rect x="432.43" y="351.35" width="27.03" height="27.03" shape-rendering="crispEdges"/><rect x="513.51" y="351.35" width="27.03" height="27.03" shape-rendering="crispEdges"/><rect x="540.54" y="351.35" width="27.03" height="27.03" shape-rendering="crispEdges"/><rect x="567.57" y="351.35" width="27.03" height="27.03" shape-rendering="crispEdges"/><rect x="594.59" y="351.35" width="27.03" height="27.03" shape-rendering="crispEdges"/><rect x="648.65" y="351.35" width="27.03" height="27.03" shape-rendering="crispEdges"/><rect x="675.68" y="351.35" width="27.03" height="27.03" shape-rendering="crispEdges"/><rect x="27.03" y="378.38" width="27.03" height="27.03" shape-rendering="crispEdges"/><rect x="54.05" y="378.38" width="27.03" height="27.03" shape-rendering="crispEdges"/><rect x="81.08" y="378.38" width="27.03" height="27.03" shape-rendering="crispEdges"/><rect x="108.11" y="378.38" width="27.03" height="27.03" shape-rendering="crispEdges"/><rect x="135.14" y="378.38" width="27.03" height="27.03" shape-rendering="crispEdges"/><rect x="162.16" y="378.38" width="27.03" height="27.03" shape-rendering="crispEdges"/><rect x="189.19" y="378.38" width="27.03" height="27.03" shape-rendering="crispEdges"/><rect x="297.3" y="378.38" width="27.03" height="27.03" shape-rendering="crispEdges"/><rect x="459.46" y="378.38" width="27.03" height="27.03" shape-rendering="crispEdges"/><rect x="513.51" y="378.38" width="27.03" height="27.03" shape-rendering="crispEdges"/><rect x="621.62" y="378.38" width="27.03" height="27.03" shape-rendering="crispEdges"/><rect x="675.68" y="378.38" width="27.03" height="27.03" shape-rendering="crispEdges"/><rect x="702.7" y="378.38" width="27.03" height="27.03" shape-rendering="crispEdges"/><rect x="729.73" y="378.38" width="27.03" height="27.03" shape-rendering="crispEdges"/><rect x="756.76" y="378.38" width="27.03" height="27.03" shape-rendering="crispEdges"/><rect x="27.03" y="405.41" width="27.03" height="27.03" shape-rendering="crispEdges"/><rect x="108.11" y="405.41" width="27.03" height="27.03" shape-rendering="crispEdges"/><rect x="135.14" y="405.41" width="27.03" height="27.03" shape-rendering="crispEdges"/><rect x="243.24" y="405.41" width="27.03" height="27.03" shape-rendering="crispEdges"/><rect x="297.3" y="405.41" width="27.03" height="27.03" shape-rendering="crispEdges"/><rect x="405.41" y="405.41" width="27.03" height="27.03" shape-rendering="crispEdges"/><rect x="513.51" y="405.41" width="27.03" height="27.03" shape-rendering="crispEdges"/><rect x="621.62" y="405.41" width="27.03" height="27.03" shape-rendering="crispEdges"/><rect x="648.65" y="405.41" width="27.03" height="27.03" shape-rendering="crispEdges"/><rect x="702.7" y="405.41" width="27.03" height="27.03" shape-rendering="crispEdges"/><rect x="27.03" y="432.43" width="27.03" height="27.03" shape-rendering="crispEdges"/><rect x="54.05" y="432.43" width="27.03" height="27.03" shape-rendering="crispEdges"/><rect x="108.11" y="432.43" width="27.03" height="27.03" shape-rendering="crispEdges"/><rect x="162.16" y="432.43" width="27.03" height="27.03" shape-rendering="crispEdges"/><rect x="270.27" y="432.43" width="27.03" height="27.03" shape-rendering="crispEdges"/><rect x="459.46" y="432.43" width="27.03" height="27.03" shape-rendering="crispEdges"/><rect x="486.49" y="432.43" width="27.03" height="27.03" shape-rendering="crispEdges"/><rect x="540.54" y="432.43" width="27.03" height="27.03" shape-rendering="crispEdges"/><rect x="567.57" y="432.43" width="27.03" height="27.03" shape-rendering="crispEdges"/><rect x="621.62" y="432.43" width="27.03" height="27.03" shape-rendering="crispEdges"/><rect y="459.46" width="27.03" height="27.03" shape-rendering="crispEdges"/><rect x="81.08" y="459.46" width="27.03" height="27.03" shape-rendering="crispEdges"/><rect x="189.19" y="459.46" width="27.03" height="27.03" shape-rendering="crispEdges"/><rect x="216.22" y="459.46" width="27.03" height="27.03" shape-rendering="crispEdges"/><rect x="324.32" y="459.46" width="27.03" height="27.03" shape-rendering="crispEdges"/><rect x="351.35" y="459.46" width="27.03" height="27.03" shape-rendering="crispEdges"/><rect x="378.38" y="459.46" width="27.03" height="27.03" shape-rendering="crispEdges"/><rect x="567.57" y="459.46" width="27.03" height="27.03" shape-rendering="crispEdges"/><rect x="621.62" y="459.46" width="27.03" height="27.03" shape-rendering="crispEdges"/><rect x="675.68" y="459.46" width="27.03" height="27.03" shape-rendering="crispEdges"/><rect x="756.76" y="459.46" width="27.03" height="27.03" shape-rendering="crispEdges"/><rect y="486.49" width="27.03" height="27.03" shape-rendering="crispEdges"/><rect x="27.03" y="486.49" width="27.03" height="27.03" shape-rendering="crispEdges"/><rect x="54.05" y="486.49" width="27.03" height="27.03" shape-rendering="crispEdges"/><rect x="108.11" y="486.49" width="27.03" height="27.03" shape-rendering="crispEdges"/><rect x="135.14" y="486.49" width="27.03" height="27.03" shape-rendering="crispEdges"/><rect x="162.16" y="486.49" width="27.03" height="27.03" shape-rendering="crispEdges"/><rect x="189.19" y="486.49" width="27.03" height="27.03" shape-rendering="crispEdges"/><rect x="216.22" y="486.49" width="27.03" height="27.03" shape-rendering="crispEdges"/><rect x="243.24" y="486.49" width="27.03" height="27.03" shape-rendering="crispEdges"/><rect x="270.27" y="486.49" width="27.03" height="27.03" shape-rendering="crispEdges"/><rect x="405.41" y="486.49" width="27.03" height="27.03" shape-rendering="crispEdges"/><rect x="432.43" y="486.49" width="27.03" height="27.03" shape-rendering="crispEdges"/><rect x="567.57" y="486.49" width="27.03" height="27.03" shape-rendering="crispEdges"/><rect x="594.59" y="486.49" width="27.03" height="27.03" shape-rendering="crispEdges"/><rect x="621.62" y="486.49" width="27.03" height="27.03" shape-rendering="crispEdges"/><rect y="513.51" width="27.03" height="27.03" shape-rendering="crispEdges"/><rect x="54.05" y="513.51" width="27.03" height="27.03" shape-rendering="crispEdges"/><rect x="81.08" y="513.51" width="27.03" height="27.03" shape-rendering="crispEdges"/><rect x="270.27" y="513.51" width="27.03" height="27.03" shape-rendering="crispEdges"/><rect x="351.35" y="513.51" width="27.03" height="27.03" shape-rendering="crispEdges"/><rect x="513.51" y="513.51" width="27.03" height="27.03" shape-rendering="crispEdges"/><rect x="540.54" y="513.51" width="27.03" height="27.03" shape-rendering="crispEdges"/><rect x="594.59" y="513.51" width="27.03" height="27.03" shape-rendering="crispEdges"/><rect x="621.62" y="513.51" width="27.03" height="27.03" shape-rendering="crispEdges"/><rect x="648.65" y="513.51" width="27.03" height="27.03" shape-rendering="crispEdges"/><rect x="729.73" y="513.51" width="27.03" height="27.03" shape-rendering="crispEdges"/><rect y="540.54" width="27.03" height="27.03" shape-rendering="crispEdges"/><rect x="54.05" y="540.54" width="27.03" height="27.03" shape-rendering="crispEdges"/><rect x="135.14" y="540.54" width="27.03" height="27.03" shape-rendering="crispEdges"/><rect x="162.16" y="540.54" width="27.03" height="27.03" shape-rendering="crispEdges"/><rect x="216.22" y="540.54" width="27.03" height="27.03" shape-rendering="crispEdges"/><rect x="270.27" y="540.54" width="27.03" height="27.03" shape-rendering="crispEdges"/><rect x="297.3" y="540.54" width="27.03" height="27.03" shape-rendering="crispEdges"/><rect x="324.32" y="540.54" width="27.03" height="27.03" shape-rendering="crispEdges"/><rect x="378.38" y="540.54" width="27.03" height="27.03" shape-rendering="crispEdges"/><rect x="405.41" y="540.54" width="27.03" height="27.03" shape-rendering="crispEdges"/><rect x="540.54" y="540.54" width="27.03" height="27.03" shape-rendering="crispEdges"/><rect x="567.57" y="540.54" width="27.03" height="27.03" shape-rendering="crispEdges"/><rect x="594.59" y="540.54" width="27.03" height="27.03" shape-rendering="crispEdges"/><rect x="621.62" y="540.54" width="27.03" height="27.03" shape-rendering="crispEdges"/><rect x="648.65" y="540.54" width="27.03" height="27.03" shape-rendering="crispEdges"/><rect x="675.68" y="540.54" width="27.03" height="27.03" shape-rendering="crispEdges"/><rect x="702.7" y="540.54" width="27.03" height="27.03" shape-rendering="crispEdges"/><rect x="729.73" y="540.54" width="27.03" height="27.03" shape-rendering="crispEdges"/><rect x="216.22" y="567.57" width="27.03" height="27.03" shape-rendering="crispEdges"/><rect x="243.24" y="567.57" width="27.03" height="27.03" shape-rendering="crispEdges"/><rect x="270.27" y="567.57" width="27.03" height="27.03" shape-rendering="crispEdges"/><rect x="324.32" y="567.57" width="27.03" height="27.03" shape-rendering="crispEdges"/><rect x="378.38" y="567.57" width="27.03" height="27.03" shape-rendering="crispEdges"/><rect x="513.51" y="567.57" width="27.03" height="27.03" shape-rendering="crispEdges"/><rect x="540.54" y="567.57" width="27.03" height="27.03" shape-rendering="crispEdges"/><rect x="648.65" y="567.57" width="27.03" height="27.03" shape-rendering="crispEdges"/><rect x="702.7" y="567.57" width="27.03" height="27.03" shape-rendering="crispEdges"/><rect x="756.76" y="567.57" width="27.03" height="27.03" shape-rendering="crispEdges"/><rect x="297.3" y="594.59" width="27.03" height="27.03" shape-rendering="crispEdges"/><rect x="324.32" y="594.59" width="27.03" height="27.03" shape-rendering="crispEdges"/><rect x="405.41" y="594.59" width="27.03" height="27.03" shape-rendering="crispEdges"/><rect x="432.43" y="594.59" width="27.03" height="27.03" shape-rendering="crispEdges"/><rect x="459.46" y="594.59" width="27.03" height="27.03" shape-rendering="crispEdges"/><rect x="513.51" y="594.59" width="27.03" height="27.03" shape-rendering="crispEdges"/><rect x="540.54" y="594.59" width="27.03" height="27.03" shape-rendering="crispEdges"/><rect x="594.59" y="594.59" width="27.03" height="27.03" shape-rendering="crispEdges"/><rect x="648.65" y="594.59" width="27.03" height="27.03" shape-rendering="crispEdges"/><rect x="675.68" y="594.59" width="27.03" height="27.03" shape-rendering="crispEdges"/><rect x="702.7" y="594.59" width="27.03" height="27.03" shape-rendering="crispEdges"/><rect x="243.24" y="621.62" width="27.03" height="27.03" shape-rendering="crispEdges"/><rect x="270.27" y="621.62" width="27.03" height="27.03" shape-rendering="crispEdges"/><rect x="324.32" y="621.62" width="27.03" height="27.03" shape-rendering="crispEdges"/><rect x="378.38" y="621.62" width="27.03" height="27.03" shape-rendering="crispEdges"/><rect x="405.41" y="621.62" width="27.03" height="27.03" shape-rendering="crispEdges"/><rect x="432.43" y="621.62" width="27.03" height="27.03" shape-rendering="crispEdges"/><rect x="486.49" y="621.62" width="27.03" height="27.03" shape-rendering="crispEdges"/><rect x="513.51" y="621.62" width="27.03" height="27.03" shape-rendering="crispEdges"/><rect x="540.54" y="621.62" width="27.03" height="27.03" shape-rendering="crispEdges"/><rect x="648.65" y="621.62" width="27.03" height="27.03" shape-rendering="crispEdges"/><rect x="702.7" y="621.62" width="27.03" height="27.03" shape-rendering="crispEdges"/><rect x="756.76" y="621.62" width="27.03" height="27.03" shape-rendering="crispEdges"/><rect x="351.35" y="648.65" width="27.03" height="27.03" shape-rendering="crispEdges"/><rect x="378.38" y="648.65" width="27.03" height="27.03" shape-rendering="crispEdges"/><rect x="405.41" y="648.65" width="27.03" height="27.03" shape-rendering="crispEdges"/><rect x="486.49" y="648.65" width="27.03" height="27.03" shape-rendering="crispEdges"/><rect x="540.54" y="648.65" width="27.03" height="27.03" shape-rendering="crispEdges"/><rect x="567.57" y="648.65" width="27.03" height="27.03" shape-rendering="crispEdges"/><rect x="594.59" y="648.65" width="27.03" height="27.03" shape-rendering="crispEdges"/><rect x="621.62" y="648.65" width="27.03" height="27.03" shape-rendering="crispEdges"/><rect x="648.65" y="648.65" width="27.03" height="27.03" shape-rendering="crispEdges"/><rect x="675.68" y="648.65" width="27.03" height="27.03" shape-rendering="crispEdges"/><rect x="729.73" y="648.65" width="27.03" height="27.03" shape-rendering="crispEdges"/><rect x="243.24" y="675.68" width="27.03" height="27.03" shape-rendering="crispEdges"/><rect x="270.27" y="675.68" width="27.03" height="27.03" shape-rendering="crispEdges"/><rect x="297.3" y="675.68" width="27.03" height="27.03" shape-rendering="crispEdges"/><rect x="324.32" y="675.68" width="27.03" height="27.03" shape-rendering="crispEdges"/><rect x="378.38" y="675.68" width="27.03" height="27.03" shape-rendering="crispEdges"/><rect x="486.49" y="675.68" width="27.03" height="27.03" shape-rendering="crispEdges"/><rect x="540.54" y="675.68" width="27.03" height="27.03" shape-rendering="crispEdges"/><rect x="567.57" y="675.68" width="27.03" height="27.03" shape-rendering="crispEdges"/><rect x="594.59" y="675.68" width="27.03" height="27.03" shape-rendering="crispEdges"/><rect x="621.62" y="675.68" width="27.03" height="27.03" shape-rendering="crispEdges"/><rect x="729.73" y="675.68" width="27.03" height="27.03" shape-rendering="crispEdges"/><rect x="270.27" y="702.7" width="27.03" height="27.03" shape-rendering="crispEdges"/><rect x="459.46" y="702.7" width="27.03" height="27.03" shape-rendering="crispEdges"/><rect x="513.51" y="702.7" width="27.03" height="27.03" shape-rendering="crispEdges"/><rect x="567.57" y="702.7" width="27.03" height="27.03" shape-rendering="crispEdges"/><rect x="594.59" y="702.7" width="27.03" height="27.03" shape-rendering="crispEdges"/><rect x="621.62" y="702.7" width="27.03" height="27.03" shape-rendering="crispEdges"/><rect x="702.7" y="702.7" width="27.03" height="27.03" shape-rendering="crispEdges"/><rect x="729.73" y="702.7" width="27.03" height="27.03" shape-rendering="crispEdges"/><rect x="243.24" y="729.73" width="27.03" height="27.03" shape-rendering="crispEdges"/><rect x="270.27" y="729.73" width="27.03" height="27.03" shape-rendering="crispEdges"/><rect x="297.3" y="729.73" width="27.03" height="27.03" shape-rendering="crispEdges"/><rect x="324.32" y="729.73" width="27.03" height="27.03" shape-rendering="crispEdges"/><rect x="351.35" y="729.73" width="27.03" height="27.03" shape-rendering="crispEdges"/><rect x="405.41" y="729.73" width="27.03" height="27.03" shape-rendering="crispEdges"/><rect x="459.46" y="729.73" width="27.03" height="27.03" shape-rendering="crispEdges"/><rect x="486.49" y="729.73" width="27.03" height="27.03" shape-rendering="crispEdges"/><rect x="540.54" y="729.73" width="27.03" height="27.03" shape-rendering="crispEdges"/><rect x="567.57" y="729.73" width="27.03" height="27.03" shape-rendering="crispEdges"/><rect x="594.59" y="729.73" width="27.03" height="27.03" shape-rendering="crispEdges"/><rect x="675.68" y="729.73" width="27.03" height="27.03" shape-rendering="crispEdges"/><rect x="729.73" y="729.73" width="27.03" height="27.03" shape-rendering="crispEdges"/><rect x="216.22" y="756.76" width="27.03" height="27.03" shape-rendering="crispEdges"/><rect x="324.32" y="756.76" width="27.03" height="27.03" shape-rendering="crispEdges"/><rect x="351.35" y="756.76" width="27.03" height="27.03" shape-rendering="crispEdges"/><rect x="378.38" y="756.76" width="27.03" height="27.03" shape-rendering="crispEdges"/><rect x="405.41" y="756.76" width="27.03" height="27.03" shape-rendering="crispEdges"/><rect x="432.43" y="756.76" width="27.03" height="27.03" shape-rendering="crispEdges"/><rect x="513.51" y="756.76" width="27.03" height="27.03" shape-rendering="crispEdges"/><rect x="594.59" y="756.76" width="27.03" height="27.03" shape-rendering="crispEdges"/><rect x="648.65" y="756.76" width="27.03" height="27.03" shape-rendering="crispEdges"/><rect x="675.68" y="756.76" width="27.03" height="27.03" shape-rendering="crispEdges"/><rect x="702.7" y="756.76" width="27.03" height="27.03" shape-rendering="crispEdges"/><path class="cls-1" d="M0,0H189.19V189.19H0V0ZM27.03,27.03H162.16V162.16H27.03V27.03Z" shape-rendering="crispEdges"/><path class="cls-1" d="M594.59,0h189.19V189.19h-189.19V0Zm27.03,27.03h135.14V162.16h-135.14V27.03Z" shape-rendering="crispEdges"/><rect x="54.05" y="54.05" width="81.08" height="81.08" shape-rendering="crispEdges"/><rect x="648.65" y="54.05" width="81.08" height="81.08" shape-rendering="crispEdges"/><path class="cls-1" d="M0,594.59H189.19v189.19H0v-189.19Zm27.03,27.03H162.16v135.14H27.03v-135.14Z" shape-rendering="crispEdges"/><rect x="54.05" y="648.65" width="81.08" height="81.08" shape-rendering="crispEdges"/></g></svg>